<mxfile host="Electron" modified="2023-10-10T19:35:01.120Z" agent="Mozilla/5.0 (Windows NT 10.0; Win64; x64) AppleWebKit/537.36 (KHTML, like Gecko) draw.io/22.0.2 Chrome/114.0.5735.289 Electron/25.8.4 Safari/537.36" etag="6hAjKtLKH5JBjNytg0hn" version="22.0.2" type="device">
  <diagram id="C5RBs43oDa-KdzZeNtuy" name="Page-1">
    <mxGraphModel dx="2823" dy="1178" grid="1" gridSize="10" guides="1" tooltips="1" connect="1" arrows="1" fold="1" page="1" pageScale="1" pageWidth="827" pageHeight="1169" math="0" shadow="0">
      <root>
        <mxCell id="WIyWlLk6GJQsqaUBKTNV-0" />
        <mxCell id="WIyWlLk6GJQsqaUBKTNV-1" parent="WIyWlLk6GJQsqaUBKTNV-0" />
        <mxCell id="26w8z32dXa9Xseuw0ZJ2-2" style="edgeStyle=orthogonalEdgeStyle;rounded=0;orthogonalLoop=1;jettySize=auto;html=1;" edge="1" parent="WIyWlLk6GJQsqaUBKTNV-1" source="uvONFodmPM9LEGw2IkII-8" target="26w8z32dXa9Xseuw0ZJ2-0">
          <mxGeometry relative="1" as="geometry" />
        </mxCell>
        <mxCell id="uvONFodmPM9LEGw2IkII-8" value="" style="ellipse;whiteSpace=wrap;html=1;aspect=fixed;fillColor=#050505;fontSize=14;" parent="WIyWlLk6GJQsqaUBKTNV-1" vertex="1">
          <mxGeometry x="410" y="105" width="20" height="20" as="geometry" />
        </mxCell>
        <mxCell id="uvONFodmPM9LEGw2IkII-70" value="Start" style="text;html=1;strokeColor=none;fillColor=none;align=center;verticalAlign=middle;whiteSpace=wrap;rounded=0;" parent="WIyWlLk6GJQsqaUBKTNV-1" vertex="1">
          <mxGeometry x="420" y="100" width="60" height="30" as="geometry" />
        </mxCell>
        <mxCell id="26w8z32dXa9Xseuw0ZJ2-6" style="edgeStyle=orthogonalEdgeStyle;rounded=0;orthogonalLoop=1;jettySize=auto;html=1;" edge="1" parent="WIyWlLk6GJQsqaUBKTNV-1" source="26w8z32dXa9Xseuw0ZJ2-0" target="26w8z32dXa9Xseuw0ZJ2-5">
          <mxGeometry relative="1" as="geometry" />
        </mxCell>
        <mxCell id="26w8z32dXa9Xseuw0ZJ2-0" value="Initialize level" style="rounded=1;whiteSpace=wrap;html=1;fontSize=11;glass=0;strokeWidth=1;shadow=0;" vertex="1" parent="WIyWlLk6GJQsqaUBKTNV-1">
          <mxGeometry x="360" y="170" width="120" height="40" as="geometry" />
        </mxCell>
        <mxCell id="26w8z32dXa9Xseuw0ZJ2-45" style="edgeStyle=orthogonalEdgeStyle;rounded=0;orthogonalLoop=1;jettySize=auto;html=1;entryX=0.5;entryY=0;entryDx=0;entryDy=0;" edge="1" parent="WIyWlLk6GJQsqaUBKTNV-1" source="26w8z32dXa9Xseuw0ZJ2-5" target="26w8z32dXa9Xseuw0ZJ2-9">
          <mxGeometry relative="1" as="geometry" />
        </mxCell>
        <mxCell id="26w8z32dXa9Xseuw0ZJ2-57" value="Time Attack" style="edgeLabel;html=1;align=center;verticalAlign=middle;resizable=0;points=[];" vertex="1" connectable="0" parent="26w8z32dXa9Xseuw0ZJ2-45">
          <mxGeometry x="-0.7311" y="-1" relative="1" as="geometry">
            <mxPoint x="-20" y="-14" as="offset" />
          </mxGeometry>
        </mxCell>
        <mxCell id="26w8z32dXa9Xseuw0ZJ2-55" style="edgeStyle=orthogonalEdgeStyle;rounded=0;orthogonalLoop=1;jettySize=auto;html=1;" edge="1" parent="WIyWlLk6GJQsqaUBKTNV-1" source="26w8z32dXa9Xseuw0ZJ2-5" target="26w8z32dXa9Xseuw0ZJ2-51">
          <mxGeometry relative="1" as="geometry">
            <mxPoint x="566.25" y="290" as="sourcePoint" />
          </mxGeometry>
        </mxCell>
        <mxCell id="26w8z32dXa9Xseuw0ZJ2-56" value="Match Point" style="edgeLabel;html=1;align=center;verticalAlign=middle;resizable=0;points=[];" vertex="1" connectable="0" parent="26w8z32dXa9Xseuw0ZJ2-55">
          <mxGeometry x="-0.6667" y="1" relative="1" as="geometry">
            <mxPoint x="6" y="-14" as="offset" />
          </mxGeometry>
        </mxCell>
        <mxCell id="26w8z32dXa9Xseuw0ZJ2-5" value="Is Time Attack or Match Point?" style="rhombus;whiteSpace=wrap;html=1;shadow=0;fontFamily=Helvetica;fontSize=12;align=center;strokeWidth=1;spacing=6;spacingTop=-4;verticalAlign=middle;" vertex="1" parent="WIyWlLk6GJQsqaUBKTNV-1">
          <mxGeometry x="363.75" y="250" width="112.5" height="90" as="geometry" />
        </mxCell>
        <mxCell id="26w8z32dXa9Xseuw0ZJ2-47" style="edgeStyle=orthogonalEdgeStyle;rounded=0;orthogonalLoop=1;jettySize=auto;html=1;entryX=0.5;entryY=0;entryDx=0;entryDy=0;" edge="1" parent="WIyWlLk6GJQsqaUBKTNV-1" source="26w8z32dXa9Xseuw0ZJ2-9" target="26w8z32dXa9Xseuw0ZJ2-46">
          <mxGeometry relative="1" as="geometry" />
        </mxCell>
        <mxCell id="26w8z32dXa9Xseuw0ZJ2-9" value="From Time Attack&#39;s configs list, get config based on difficulty&amp;nbsp;" style="rounded=1;whiteSpace=wrap;html=1;fontSize=11;glass=0;strokeWidth=1;shadow=0;" vertex="1" parent="WIyWlLk6GJQsqaUBKTNV-1">
          <mxGeometry x="52.510000000000005" y="350" width="120" height="40" as="geometry" />
        </mxCell>
        <mxCell id="26w8z32dXa9Xseuw0ZJ2-49" style="edgeStyle=orthogonalEdgeStyle;rounded=0;orthogonalLoop=1;jettySize=auto;html=1;" edge="1" parent="WIyWlLk6GJQsqaUBKTNV-1" source="26w8z32dXa9Xseuw0ZJ2-46" target="26w8z32dXa9Xseuw0ZJ2-48">
          <mxGeometry relative="1" as="geometry" />
        </mxCell>
        <mxCell id="26w8z32dXa9Xseuw0ZJ2-46" value="Initialize and show central timer and &quot;Repeat bar&quot; timer" style="rounded=1;whiteSpace=wrap;html=1;fontSize=11;glass=0;strokeWidth=1;shadow=0;" vertex="1" parent="WIyWlLk6GJQsqaUBKTNV-1">
          <mxGeometry x="52.510000000000005" y="450" width="120" height="40" as="geometry" />
        </mxCell>
        <mxCell id="26w8z32dXa9Xseuw0ZJ2-63" style="edgeStyle=orthogonalEdgeStyle;rounded=0;orthogonalLoop=1;jettySize=auto;html=1;" edge="1" parent="WIyWlLk6GJQsqaUBKTNV-1" source="26w8z32dXa9Xseuw0ZJ2-48" target="26w8z32dXa9Xseuw0ZJ2-59">
          <mxGeometry relative="1" as="geometry" />
        </mxCell>
        <mxCell id="26w8z32dXa9Xseuw0ZJ2-48" value="Initialize and show matches and lives counters" style="rounded=1;whiteSpace=wrap;html=1;fontSize=11;glass=0;strokeWidth=1;shadow=0;" vertex="1" parent="WIyWlLk6GJQsqaUBKTNV-1">
          <mxGeometry x="52.510000000000005" y="540" width="120" height="40" as="geometry" />
        </mxCell>
        <mxCell id="26w8z32dXa9Xseuw0ZJ2-50" style="edgeStyle=orthogonalEdgeStyle;rounded=0;orthogonalLoop=1;jettySize=auto;html=1;entryX=0.5;entryY=0;entryDx=0;entryDy=0;" edge="1" parent="WIyWlLk6GJQsqaUBKTNV-1" source="26w8z32dXa9Xseuw0ZJ2-51" target="26w8z32dXa9Xseuw0ZJ2-53">
          <mxGeometry relative="1" as="geometry" />
        </mxCell>
        <mxCell id="26w8z32dXa9Xseuw0ZJ2-51" value="From Match Points&#39;s configs list, get config based on difficulty&amp;nbsp;" style="rounded=1;whiteSpace=wrap;html=1;fontSize=11;glass=0;strokeWidth=1;shadow=0;" vertex="1" parent="WIyWlLk6GJQsqaUBKTNV-1">
          <mxGeometry x="639.82" y="347.54" width="120" height="40" as="geometry" />
        </mxCell>
        <mxCell id="26w8z32dXa9Xseuw0ZJ2-52" style="edgeStyle=orthogonalEdgeStyle;rounded=0;orthogonalLoop=1;jettySize=auto;html=1;" edge="1" parent="WIyWlLk6GJQsqaUBKTNV-1" source="26w8z32dXa9Xseuw0ZJ2-53" target="26w8z32dXa9Xseuw0ZJ2-54">
          <mxGeometry relative="1" as="geometry" />
        </mxCell>
        <mxCell id="26w8z32dXa9Xseuw0ZJ2-53" value="Initialize and show central timer&amp;nbsp;" style="rounded=1;whiteSpace=wrap;html=1;fontSize=11;glass=0;strokeWidth=1;shadow=0;" vertex="1" parent="WIyWlLk6GJQsqaUBKTNV-1">
          <mxGeometry x="639.82" y="447.54" width="120" height="40" as="geometry" />
        </mxCell>
        <mxCell id="26w8z32dXa9Xseuw0ZJ2-130" style="edgeStyle=orthogonalEdgeStyle;rounded=0;orthogonalLoop=1;jettySize=auto;html=1;entryX=0.5;entryY=0;entryDx=0;entryDy=0;" edge="1" parent="WIyWlLk6GJQsqaUBKTNV-1" source="26w8z32dXa9Xseuw0ZJ2-54" target="26w8z32dXa9Xseuw0ZJ2-118">
          <mxGeometry relative="1" as="geometry" />
        </mxCell>
        <mxCell id="26w8z32dXa9Xseuw0ZJ2-54" value="Initialize and show score counter" style="rounded=1;whiteSpace=wrap;html=1;fontSize=11;glass=0;strokeWidth=1;shadow=0;" vertex="1" parent="WIyWlLk6GJQsqaUBKTNV-1">
          <mxGeometry x="640.09" y="530.54" width="120" height="40" as="geometry" />
        </mxCell>
        <mxCell id="26w8z32dXa9Xseuw0ZJ2-65" style="edgeStyle=orthogonalEdgeStyle;rounded=0;orthogonalLoop=1;jettySize=auto;html=1;" edge="1" parent="WIyWlLk6GJQsqaUBKTNV-1" source="26w8z32dXa9Xseuw0ZJ2-59" target="26w8z32dXa9Xseuw0ZJ2-64">
          <mxGeometry relative="1" as="geometry" />
        </mxCell>
        <mxCell id="26w8z32dXa9Xseuw0ZJ2-91" style="edgeStyle=orthogonalEdgeStyle;rounded=0;orthogonalLoop=1;jettySize=auto;html=1;dashed=1;" edge="1" parent="WIyWlLk6GJQsqaUBKTNV-1" source="26w8z32dXa9Xseuw0ZJ2-59" target="26w8z32dXa9Xseuw0ZJ2-80">
          <mxGeometry relative="1" as="geometry">
            <Array as="points">
              <mxPoint x="-20" y="650" />
              <mxPoint x="-20" y="740" />
            </Array>
          </mxGeometry>
        </mxCell>
        <mxCell id="26w8z32dXa9Xseuw0ZJ2-151" style="edgeStyle=orthogonalEdgeStyle;rounded=0;orthogonalLoop=1;jettySize=auto;html=1;dashed=1;" edge="1" parent="WIyWlLk6GJQsqaUBKTNV-1" source="26w8z32dXa9Xseuw0ZJ2-59" target="26w8z32dXa9Xseuw0ZJ2-137">
          <mxGeometry relative="1" as="geometry">
            <Array as="points">
              <mxPoint x="320" y="650" />
              <mxPoint x="320" y="681" />
            </Array>
          </mxGeometry>
        </mxCell>
        <mxCell id="26w8z32dXa9Xseuw0ZJ2-59" value="Start Game" style="rounded=1;whiteSpace=wrap;html=1;fontSize=11;glass=0;strokeWidth=1;shadow=0;" vertex="1" parent="WIyWlLk6GJQsqaUBKTNV-1">
          <mxGeometry x="52.510000000000005" y="630" width="120" height="40" as="geometry" />
        </mxCell>
        <mxCell id="26w8z32dXa9Xseuw0ZJ2-66" style="edgeStyle=orthogonalEdgeStyle;rounded=0;orthogonalLoop=1;jettySize=auto;html=1;" edge="1" parent="WIyWlLk6GJQsqaUBKTNV-1" source="26w8z32dXa9Xseuw0ZJ2-64">
          <mxGeometry relative="1" as="geometry">
            <mxPoint x="112.50999999999999" y="700" as="targetPoint" />
            <Array as="points">
              <mxPoint x="32.51" y="765" />
              <mxPoint x="32.51" y="700" />
              <mxPoint x="52.510000000000005" y="700" />
            </Array>
          </mxGeometry>
        </mxCell>
        <mxCell id="26w8z32dXa9Xseuw0ZJ2-67" value="No" style="edgeLabel;html=1;align=center;verticalAlign=middle;resizable=0;points=[];" vertex="1" connectable="0" parent="26w8z32dXa9Xseuw0ZJ2-66">
          <mxGeometry x="-0.8563" y="2" relative="1" as="geometry">
            <mxPoint x="9" y="-17" as="offset" />
          </mxGeometry>
        </mxCell>
        <mxCell id="26w8z32dXa9Xseuw0ZJ2-69" style="edgeStyle=orthogonalEdgeStyle;rounded=0;orthogonalLoop=1;jettySize=auto;html=1;" edge="1" parent="WIyWlLk6GJQsqaUBKTNV-1" source="26w8z32dXa9Xseuw0ZJ2-64" target="26w8z32dXa9Xseuw0ZJ2-68">
          <mxGeometry relative="1" as="geometry" />
        </mxCell>
        <mxCell id="26w8z32dXa9Xseuw0ZJ2-70" value="Yes" style="edgeLabel;html=1;align=center;verticalAlign=middle;resizable=0;points=[];" vertex="1" connectable="0" parent="26w8z32dXa9Xseuw0ZJ2-69">
          <mxGeometry x="-0.4985" y="-3" relative="1" as="geometry">
            <mxPoint x="23" as="offset" />
          </mxGeometry>
        </mxCell>
        <mxCell id="26w8z32dXa9Xseuw0ZJ2-64" value="Found match?" style="rhombus;whiteSpace=wrap;html=1;shadow=0;fontFamily=Helvetica;fontSize=12;align=center;strokeWidth=1;spacing=6;spacingTop=-4;verticalAlign=middle;" vertex="1" parent="WIyWlLk6GJQsqaUBKTNV-1">
          <mxGeometry x="56.260000000000005" y="720" width="112.5" height="90" as="geometry" />
        </mxCell>
        <mxCell id="26w8z32dXa9Xseuw0ZJ2-72" style="edgeStyle=orthogonalEdgeStyle;rounded=0;orthogonalLoop=1;jettySize=auto;html=1;" edge="1" parent="WIyWlLk6GJQsqaUBKTNV-1" source="26w8z32dXa9Xseuw0ZJ2-68" target="26w8z32dXa9Xseuw0ZJ2-71">
          <mxGeometry relative="1" as="geometry" />
        </mxCell>
        <mxCell id="26w8z32dXa9Xseuw0ZJ2-68" value="Increase matches counter" style="rounded=1;whiteSpace=wrap;html=1;fontSize=11;glass=0;strokeWidth=1;shadow=0;" vertex="1" parent="WIyWlLk6GJQsqaUBKTNV-1">
          <mxGeometry x="52.510000000000005" y="850" width="120" height="40" as="geometry" />
        </mxCell>
        <mxCell id="26w8z32dXa9Xseuw0ZJ2-73" style="edgeStyle=orthogonalEdgeStyle;rounded=0;orthogonalLoop=1;jettySize=auto;html=1;" edge="1" parent="WIyWlLk6GJQsqaUBKTNV-1" source="26w8z32dXa9Xseuw0ZJ2-71" target="26w8z32dXa9Xseuw0ZJ2-64">
          <mxGeometry relative="1" as="geometry">
            <mxPoint x="182.51" y="700" as="targetPoint" />
            <Array as="points">
              <mxPoint x="220" y="1000" />
              <mxPoint x="220" y="765" />
            </Array>
          </mxGeometry>
        </mxCell>
        <mxCell id="26w8z32dXa9Xseuw0ZJ2-74" value="No" style="edgeLabel;html=1;align=center;verticalAlign=middle;resizable=0;points=[];" vertex="1" connectable="0" parent="26w8z32dXa9Xseuw0ZJ2-73">
          <mxGeometry x="-0.9104" y="-2" relative="1" as="geometry">
            <mxPoint x="-6" y="-22" as="offset" />
          </mxGeometry>
        </mxCell>
        <mxCell id="26w8z32dXa9Xseuw0ZJ2-92" style="edgeStyle=orthogonalEdgeStyle;rounded=0;orthogonalLoop=1;jettySize=auto;html=1;dashed=1;" edge="1" parent="WIyWlLk6GJQsqaUBKTNV-1" source="26w8z32dXa9Xseuw0ZJ2-71" target="26w8z32dXa9Xseuw0ZJ2-80">
          <mxGeometry relative="1" as="geometry">
            <Array as="points">
              <mxPoint x="-20" y="1000" />
              <mxPoint x="-20" y="760" />
            </Array>
          </mxGeometry>
        </mxCell>
        <mxCell id="26w8z32dXa9Xseuw0ZJ2-93" value="Yes" style="edgeLabel;html=1;align=center;verticalAlign=middle;resizable=0;points=[];" vertex="1" connectable="0" parent="26w8z32dXa9Xseuw0ZJ2-92">
          <mxGeometry x="-0.508" y="2" relative="1" as="geometry">
            <mxPoint x="38" y="26" as="offset" />
          </mxGeometry>
        </mxCell>
        <mxCell id="26w8z32dXa9Xseuw0ZJ2-71" value="Found number of matches required to reset reapet bar timer?" style="rhombus;whiteSpace=wrap;html=1;shadow=0;fontFamily=Helvetica;fontSize=12;align=center;strokeWidth=1;spacing=6;spacingTop=-4;verticalAlign=middle;" vertex="1" parent="WIyWlLk6GJQsqaUBKTNV-1">
          <mxGeometry x="37.510000000000005" y="940" width="150" height="120" as="geometry" />
        </mxCell>
        <mxCell id="26w8z32dXa9Xseuw0ZJ2-79" value="&lt;font color=&quot;#ff0000&quot;&gt;&lt;b&gt;&amp;nbsp;Repeat bar timer&lt;/b&gt;&lt;/font&gt;" style="text;html=1;strokeColor=none;fillColor=none;align=center;verticalAlign=middle;whiteSpace=wrap;rounded=0;" vertex="1" parent="WIyWlLk6GJQsqaUBKTNV-1">
          <mxGeometry x="-290" y="700" width="260" height="30" as="geometry" />
        </mxCell>
        <mxCell id="26w8z32dXa9Xseuw0ZJ2-87" style="edgeStyle=orthogonalEdgeStyle;rounded=0;orthogonalLoop=1;jettySize=auto;html=1;entryX=0.5;entryY=0;entryDx=0;entryDy=0;" edge="1" parent="WIyWlLk6GJQsqaUBKTNV-1" source="26w8z32dXa9Xseuw0ZJ2-80" target="26w8z32dXa9Xseuw0ZJ2-86">
          <mxGeometry relative="1" as="geometry" />
        </mxCell>
        <mxCell id="26w8z32dXa9Xseuw0ZJ2-80" value="Initialize and start Repeat Timer" style="rounded=1;whiteSpace=wrap;html=1;fontSize=11;glass=0;strokeWidth=1;shadow=0;" vertex="1" parent="WIyWlLk6GJQsqaUBKTNV-1">
          <mxGeometry x="-210.06" y="732" width="120" height="40" as="geometry" />
        </mxCell>
        <mxCell id="26w8z32dXa9Xseuw0ZJ2-94" style="edgeStyle=orthogonalEdgeStyle;rounded=0;orthogonalLoop=1;jettySize=auto;html=1;" edge="1" parent="WIyWlLk6GJQsqaUBKTNV-1" source="26w8z32dXa9Xseuw0ZJ2-82" target="26w8z32dXa9Xseuw0ZJ2-86">
          <mxGeometry relative="1" as="geometry">
            <Array as="points">
              <mxPoint x="-70.14" y="977" />
              <mxPoint x="-70.14" y="852" />
            </Array>
          </mxGeometry>
        </mxCell>
        <mxCell id="26w8z32dXa9Xseuw0ZJ2-95" value="No" style="edgeLabel;html=1;align=center;verticalAlign=middle;resizable=0;points=[];" vertex="1" connectable="0" parent="26w8z32dXa9Xseuw0ZJ2-94">
          <mxGeometry x="-0.7592" y="1" relative="1" as="geometry">
            <mxPoint x="-16" y="-16" as="offset" />
          </mxGeometry>
        </mxCell>
        <mxCell id="26w8z32dXa9Xseuw0ZJ2-106" style="edgeStyle=orthogonalEdgeStyle;rounded=0;orthogonalLoop=1;jettySize=auto;html=1;" edge="1" parent="WIyWlLk6GJQsqaUBKTNV-1" source="26w8z32dXa9Xseuw0ZJ2-82" target="26w8z32dXa9Xseuw0ZJ2-105">
          <mxGeometry relative="1" as="geometry" />
        </mxCell>
        <mxCell id="26w8z32dXa9Xseuw0ZJ2-115" value="Yes" style="edgeLabel;html=1;align=center;verticalAlign=middle;resizable=0;points=[];" vertex="1" connectable="0" parent="26w8z32dXa9Xseuw0ZJ2-106">
          <mxGeometry x="-0.3883" y="-1" relative="1" as="geometry">
            <mxPoint x="21" as="offset" />
          </mxGeometry>
        </mxCell>
        <mxCell id="26w8z32dXa9Xseuw0ZJ2-82" value="Timer drained?" style="rhombus;whiteSpace=wrap;html=1;shadow=0;fontFamily=Helvetica;fontSize=12;align=center;strokeWidth=1;spacing=6;spacingTop=-4;verticalAlign=middle;" vertex="1" parent="WIyWlLk6GJQsqaUBKTNV-1">
          <mxGeometry x="-206.31" y="932" width="112.5" height="90" as="geometry" />
        </mxCell>
        <mxCell id="26w8z32dXa9Xseuw0ZJ2-88" style="edgeStyle=orthogonalEdgeStyle;rounded=0;orthogonalLoop=1;jettySize=auto;html=1;" edge="1" parent="WIyWlLk6GJQsqaUBKTNV-1" source="26w8z32dXa9Xseuw0ZJ2-86" target="26w8z32dXa9Xseuw0ZJ2-82">
          <mxGeometry relative="1" as="geometry" />
        </mxCell>
        <mxCell id="26w8z32dXa9Xseuw0ZJ2-86" value="Decrease remaining seconds" style="rounded=1;whiteSpace=wrap;html=1;fontSize=11;glass=0;strokeWidth=1;shadow=0;" vertex="1" parent="WIyWlLk6GJQsqaUBKTNV-1">
          <mxGeometry x="-210.06" y="832" width="120" height="40" as="geometry" />
        </mxCell>
        <mxCell id="26w8z32dXa9Xseuw0ZJ2-178" style="edgeStyle=orthogonalEdgeStyle;rounded=0;orthogonalLoop=1;jettySize=auto;html=1;" edge="1" parent="WIyWlLk6GJQsqaUBKTNV-1" source="26w8z32dXa9Xseuw0ZJ2-102" target="26w8z32dXa9Xseuw0ZJ2-175">
          <mxGeometry relative="1" as="geometry" />
        </mxCell>
        <mxCell id="26w8z32dXa9Xseuw0ZJ2-102" value="Finish Game" style="rounded=1;whiteSpace=wrap;html=1;fontSize=11;glass=0;strokeWidth=1;shadow=0;" vertex="1" parent="WIyWlLk6GJQsqaUBKTNV-1">
          <mxGeometry x="364" y="1185" width="120" height="40" as="geometry" />
        </mxCell>
        <mxCell id="26w8z32dXa9Xseuw0ZJ2-108" style="edgeStyle=orthogonalEdgeStyle;rounded=0;orthogonalLoop=1;jettySize=auto;html=1;" edge="1" parent="WIyWlLk6GJQsqaUBKTNV-1" source="26w8z32dXa9Xseuw0ZJ2-105" target="26w8z32dXa9Xseuw0ZJ2-107">
          <mxGeometry relative="1" as="geometry" />
        </mxCell>
        <mxCell id="26w8z32dXa9Xseuw0ZJ2-105" value="Decrease lives counter" style="rounded=1;whiteSpace=wrap;html=1;fontSize=11;glass=0;strokeWidth=1;shadow=0;" vertex="1" parent="WIyWlLk6GJQsqaUBKTNV-1">
          <mxGeometry x="-210.06" y="1070" width="120" height="40" as="geometry" />
        </mxCell>
        <mxCell id="26w8z32dXa9Xseuw0ZJ2-109" style="edgeStyle=orthogonalEdgeStyle;rounded=0;orthogonalLoop=1;jettySize=auto;html=1;entryX=0;entryY=0.5;entryDx=0;entryDy=0;dashed=1;" edge="1" parent="WIyWlLk6GJQsqaUBKTNV-1" source="26w8z32dXa9Xseuw0ZJ2-107" target="26w8z32dXa9Xseuw0ZJ2-102">
          <mxGeometry relative="1" as="geometry" />
        </mxCell>
        <mxCell id="26w8z32dXa9Xseuw0ZJ2-110" value="Yes" style="edgeLabel;html=1;align=center;verticalAlign=middle;resizable=0;points=[];" vertex="1" connectable="0" parent="26w8z32dXa9Xseuw0ZJ2-109">
          <mxGeometry x="-0.6555" y="-3" relative="1" as="geometry">
            <mxPoint x="-42" y="-23" as="offset" />
          </mxGeometry>
        </mxCell>
        <mxCell id="26w8z32dXa9Xseuw0ZJ2-111" style="edgeStyle=orthogonalEdgeStyle;rounded=0;orthogonalLoop=1;jettySize=auto;html=1;entryX=0;entryY=0.5;entryDx=0;entryDy=0;" edge="1" parent="WIyWlLk6GJQsqaUBKTNV-1" source="26w8z32dXa9Xseuw0ZJ2-107" target="26w8z32dXa9Xseuw0ZJ2-80">
          <mxGeometry relative="1" as="geometry">
            <Array as="points">
              <mxPoint x="-249.99999999999997" y="1205" />
              <mxPoint x="-249.99999999999997" y="752" />
            </Array>
          </mxGeometry>
        </mxCell>
        <mxCell id="26w8z32dXa9Xseuw0ZJ2-112" value="No" style="edgeLabel;html=1;align=center;verticalAlign=middle;resizable=0;points=[];" vertex="1" connectable="0" parent="26w8z32dXa9Xseuw0ZJ2-111">
          <mxGeometry x="-0.9529" relative="1" as="geometry">
            <mxPoint x="2" y="-20" as="offset" />
          </mxGeometry>
        </mxCell>
        <mxCell id="26w8z32dXa9Xseuw0ZJ2-107" value="Lives drained?" style="rhombus;whiteSpace=wrap;html=1;shadow=0;fontFamily=Helvetica;fontSize=12;align=center;strokeWidth=1;spacing=6;spacingTop=-4;verticalAlign=middle;" vertex="1" parent="WIyWlLk6GJQsqaUBKTNV-1">
          <mxGeometry x="-206.31" y="1160" width="112.5" height="90" as="geometry" />
        </mxCell>
        <mxCell id="26w8z32dXa9Xseuw0ZJ2-114" value="Parell Process" style="shape=umlFrame;whiteSpace=wrap;html=1;pointerEvents=0;fontSize=10;strokeColor=#CC0000;" vertex="1" parent="WIyWlLk6GJQsqaUBKTNV-1">
          <mxGeometry x="-290" y="700" width="260" height="570" as="geometry" />
        </mxCell>
        <mxCell id="26w8z32dXa9Xseuw0ZJ2-117" style="edgeStyle=orthogonalEdgeStyle;rounded=0;orthogonalLoop=1;jettySize=auto;html=1;" edge="1" parent="WIyWlLk6GJQsqaUBKTNV-1" source="26w8z32dXa9Xseuw0ZJ2-118" target="26w8z32dXa9Xseuw0ZJ2-123">
          <mxGeometry relative="1" as="geometry" />
        </mxCell>
        <mxCell id="26w8z32dXa9Xseuw0ZJ2-152" style="edgeStyle=orthogonalEdgeStyle;rounded=0;orthogonalLoop=1;jettySize=auto;html=1;dashed=1;" edge="1" parent="WIyWlLk6GJQsqaUBKTNV-1" source="26w8z32dXa9Xseuw0ZJ2-118" target="26w8z32dXa9Xseuw0ZJ2-137">
          <mxGeometry relative="1" as="geometry">
            <Array as="points">
              <mxPoint x="540" y="647" />
              <mxPoint x="540" y="681" />
            </Array>
          </mxGeometry>
        </mxCell>
        <mxCell id="26w8z32dXa9Xseuw0ZJ2-118" value="Start Game" style="rounded=1;whiteSpace=wrap;html=1;fontSize=11;glass=0;strokeWidth=1;shadow=0;" vertex="1" parent="WIyWlLk6GJQsqaUBKTNV-1">
          <mxGeometry x="640.07" y="627.54" width="120" height="40" as="geometry" />
        </mxCell>
        <mxCell id="26w8z32dXa9Xseuw0ZJ2-119" style="edgeStyle=orthogonalEdgeStyle;rounded=0;orthogonalLoop=1;jettySize=auto;html=1;" edge="1" parent="WIyWlLk6GJQsqaUBKTNV-1" source="26w8z32dXa9Xseuw0ZJ2-123">
          <mxGeometry relative="1" as="geometry">
            <mxPoint x="700.07" y="697.54" as="targetPoint" />
            <Array as="points">
              <mxPoint x="620.07" y="762.54" />
              <mxPoint x="620.07" y="697.54" />
              <mxPoint x="640.07" y="697.54" />
            </Array>
          </mxGeometry>
        </mxCell>
        <mxCell id="26w8z32dXa9Xseuw0ZJ2-120" value="No" style="edgeLabel;html=1;align=center;verticalAlign=middle;resizable=0;points=[];" vertex="1" connectable="0" parent="26w8z32dXa9Xseuw0ZJ2-119">
          <mxGeometry x="-0.8563" y="2" relative="1" as="geometry">
            <mxPoint x="9" y="-17" as="offset" />
          </mxGeometry>
        </mxCell>
        <mxCell id="26w8z32dXa9Xseuw0ZJ2-121" style="edgeStyle=orthogonalEdgeStyle;rounded=0;orthogonalLoop=1;jettySize=auto;html=1;" edge="1" parent="WIyWlLk6GJQsqaUBKTNV-1" source="26w8z32dXa9Xseuw0ZJ2-123" target="26w8z32dXa9Xseuw0ZJ2-125">
          <mxGeometry relative="1" as="geometry" />
        </mxCell>
        <mxCell id="26w8z32dXa9Xseuw0ZJ2-122" value="Yes" style="edgeLabel;html=1;align=center;verticalAlign=middle;resizable=0;points=[];" vertex="1" connectable="0" parent="26w8z32dXa9Xseuw0ZJ2-121">
          <mxGeometry x="-0.4985" y="-3" relative="1" as="geometry">
            <mxPoint x="23" as="offset" />
          </mxGeometry>
        </mxCell>
        <mxCell id="26w8z32dXa9Xseuw0ZJ2-123" value="Found match?" style="rhombus;whiteSpace=wrap;html=1;shadow=0;fontFamily=Helvetica;fontSize=12;align=center;strokeWidth=1;spacing=6;spacingTop=-4;verticalAlign=middle;" vertex="1" parent="WIyWlLk6GJQsqaUBKTNV-1">
          <mxGeometry x="643.82" y="717.54" width="112.5" height="90" as="geometry" />
        </mxCell>
        <mxCell id="26w8z32dXa9Xseuw0ZJ2-124" style="edgeStyle=orthogonalEdgeStyle;rounded=0;orthogonalLoop=1;jettySize=auto;html=1;" edge="1" parent="WIyWlLk6GJQsqaUBKTNV-1" source="26w8z32dXa9Xseuw0ZJ2-125" target="26w8z32dXa9Xseuw0ZJ2-129">
          <mxGeometry relative="1" as="geometry" />
        </mxCell>
        <mxCell id="26w8z32dXa9Xseuw0ZJ2-125" value="Increase score&#39;s counter" style="rounded=1;whiteSpace=wrap;html=1;fontSize=11;glass=0;strokeWidth=1;shadow=0;" vertex="1" parent="WIyWlLk6GJQsqaUBKTNV-1">
          <mxGeometry x="640.07" y="847.54" width="120" height="40" as="geometry" />
        </mxCell>
        <mxCell id="26w8z32dXa9Xseuw0ZJ2-126" style="edgeStyle=orthogonalEdgeStyle;rounded=0;orthogonalLoop=1;jettySize=auto;html=1;" edge="1" parent="WIyWlLk6GJQsqaUBKTNV-1" source="26w8z32dXa9Xseuw0ZJ2-129">
          <mxGeometry relative="1" as="geometry">
            <mxPoint x="700.07" y="697.54" as="targetPoint" />
            <Array as="points">
              <mxPoint x="820" y="986" />
              <mxPoint x="820" y="698" />
              <mxPoint x="700" y="698" />
            </Array>
          </mxGeometry>
        </mxCell>
        <mxCell id="26w8z32dXa9Xseuw0ZJ2-127" value="No" style="edgeLabel;html=1;align=center;verticalAlign=middle;resizable=0;points=[];" vertex="1" connectable="0" parent="26w8z32dXa9Xseuw0ZJ2-126">
          <mxGeometry x="-0.9104" y="-2" relative="1" as="geometry">
            <mxPoint x="-6" y="-18" as="offset" />
          </mxGeometry>
        </mxCell>
        <mxCell id="26w8z32dXa9Xseuw0ZJ2-132" style="edgeStyle=orthogonalEdgeStyle;rounded=0;orthogonalLoop=1;jettySize=auto;html=1;" edge="1" parent="WIyWlLk6GJQsqaUBKTNV-1" source="26w8z32dXa9Xseuw0ZJ2-129" target="26w8z32dXa9Xseuw0ZJ2-102">
          <mxGeometry relative="1" as="geometry">
            <Array as="points">
              <mxPoint x="700" y="1205" />
            </Array>
          </mxGeometry>
        </mxCell>
        <mxCell id="26w8z32dXa9Xseuw0ZJ2-133" value="Yes" style="edgeLabel;html=1;align=center;verticalAlign=middle;resizable=0;points=[];" vertex="1" connectable="0" parent="26w8z32dXa9Xseuw0ZJ2-132">
          <mxGeometry x="-0.7254" y="-3" relative="1" as="geometry">
            <mxPoint x="23" y="-37" as="offset" />
          </mxGeometry>
        </mxCell>
        <mxCell id="26w8z32dXa9Xseuw0ZJ2-129" value="Score goal reached?" style="rhombus;whiteSpace=wrap;html=1;shadow=0;fontFamily=Helvetica;fontSize=12;align=center;strokeWidth=1;spacing=6;spacingTop=-4;verticalAlign=middle;" vertex="1" parent="WIyWlLk6GJQsqaUBKTNV-1">
          <mxGeometry x="642.56" y="940" width="115.07" height="92.06" as="geometry" />
        </mxCell>
        <mxCell id="26w8z32dXa9Xseuw0ZJ2-134" value="Parell Process" style="shape=umlFrame;whiteSpace=wrap;html=1;pointerEvents=0;fontSize=10;strokeColor=#CC0000;" vertex="1" parent="WIyWlLk6GJQsqaUBKTNV-1">
          <mxGeometry x="294" y="610" width="260" height="370" as="geometry" />
        </mxCell>
        <mxCell id="26w8z32dXa9Xseuw0ZJ2-135" value="&lt;font color=&quot;#ff0000&quot;&gt;&lt;b&gt;Central Timer&lt;/b&gt;&lt;/font&gt;" style="text;html=1;strokeColor=none;fillColor=none;align=center;verticalAlign=middle;whiteSpace=wrap;rounded=0;" vertex="1" parent="WIyWlLk6GJQsqaUBKTNV-1">
          <mxGeometry x="294" y="610" width="260" height="30" as="geometry" />
        </mxCell>
        <mxCell id="26w8z32dXa9Xseuw0ZJ2-136" style="edgeStyle=orthogonalEdgeStyle;rounded=0;orthogonalLoop=1;jettySize=auto;html=1;entryX=0.5;entryY=0;entryDx=0;entryDy=0;" edge="1" parent="WIyWlLk6GJQsqaUBKTNV-1" source="26w8z32dXa9Xseuw0ZJ2-137" target="26w8z32dXa9Xseuw0ZJ2-144">
          <mxGeometry relative="1" as="geometry" />
        </mxCell>
        <mxCell id="26w8z32dXa9Xseuw0ZJ2-137" value="Initialize and start Central Timer" style="rounded=1;whiteSpace=wrap;html=1;fontSize=11;glass=0;strokeWidth=1;shadow=0;" vertex="1" parent="WIyWlLk6GJQsqaUBKTNV-1">
          <mxGeometry x="364" y="661" width="120" height="40" as="geometry" />
        </mxCell>
        <mxCell id="26w8z32dXa9Xseuw0ZJ2-138" style="edgeStyle=orthogonalEdgeStyle;rounded=0;orthogonalLoop=1;jettySize=auto;html=1;" edge="1" parent="WIyWlLk6GJQsqaUBKTNV-1" source="26w8z32dXa9Xseuw0ZJ2-142" target="26w8z32dXa9Xseuw0ZJ2-144">
          <mxGeometry relative="1" as="geometry">
            <Array as="points">
              <mxPoint x="503.9200000000001" y="906" />
              <mxPoint x="503.9200000000001" y="781" />
            </Array>
          </mxGeometry>
        </mxCell>
        <mxCell id="26w8z32dXa9Xseuw0ZJ2-139" value="No" style="edgeLabel;html=1;align=center;verticalAlign=middle;resizable=0;points=[];" vertex="1" connectable="0" parent="26w8z32dXa9Xseuw0ZJ2-138">
          <mxGeometry x="-0.7592" y="1" relative="1" as="geometry">
            <mxPoint x="-16" y="-16" as="offset" />
          </mxGeometry>
        </mxCell>
        <mxCell id="26w8z32dXa9Xseuw0ZJ2-153" style="edgeStyle=orthogonalEdgeStyle;rounded=0;orthogonalLoop=1;jettySize=auto;html=1;dashed=1;" edge="1" parent="WIyWlLk6GJQsqaUBKTNV-1" source="26w8z32dXa9Xseuw0ZJ2-142" target="26w8z32dXa9Xseuw0ZJ2-102">
          <mxGeometry relative="1" as="geometry" />
        </mxCell>
        <mxCell id="26w8z32dXa9Xseuw0ZJ2-154" value="Yes" style="edgeLabel;html=1;align=center;verticalAlign=middle;resizable=0;points=[];" vertex="1" connectable="0" parent="26w8z32dXa9Xseuw0ZJ2-153">
          <mxGeometry x="0.3375" y="1" relative="1" as="geometry">
            <mxPoint x="15" y="-148" as="offset" />
          </mxGeometry>
        </mxCell>
        <mxCell id="26w8z32dXa9Xseuw0ZJ2-142" value="Timer drained?" style="rhombus;whiteSpace=wrap;html=1;shadow=0;fontFamily=Helvetica;fontSize=12;align=center;strokeWidth=1;spacing=6;spacingTop=-4;verticalAlign=middle;" vertex="1" parent="WIyWlLk6GJQsqaUBKTNV-1">
          <mxGeometry x="367.75" y="861" width="112.5" height="90" as="geometry" />
        </mxCell>
        <mxCell id="26w8z32dXa9Xseuw0ZJ2-143" style="edgeStyle=orthogonalEdgeStyle;rounded=0;orthogonalLoop=1;jettySize=auto;html=1;" edge="1" parent="WIyWlLk6GJQsqaUBKTNV-1" source="26w8z32dXa9Xseuw0ZJ2-144" target="26w8z32dXa9Xseuw0ZJ2-142">
          <mxGeometry relative="1" as="geometry" />
        </mxCell>
        <mxCell id="26w8z32dXa9Xseuw0ZJ2-144" value="Decrease remaining seconds" style="rounded=1;whiteSpace=wrap;html=1;fontSize=11;glass=0;strokeWidth=1;shadow=0;" vertex="1" parent="WIyWlLk6GJQsqaUBKTNV-1">
          <mxGeometry x="364" y="761" width="120" height="40" as="geometry" />
        </mxCell>
        <mxCell id="26w8z32dXa9Xseuw0ZJ2-175" value="" style="ellipse;whiteSpace=wrap;html=1;aspect=fixed;fillColor=#FFFFFF;fontSize=14;" vertex="1" parent="WIyWlLk6GJQsqaUBKTNV-1">
          <mxGeometry x="414" y="1285" width="20" height="20" as="geometry" />
        </mxCell>
        <mxCell id="26w8z32dXa9Xseuw0ZJ2-176" value="End" style="text;html=1;strokeColor=none;fillColor=none;align=center;verticalAlign=middle;whiteSpace=wrap;rounded=0;" vertex="1" parent="WIyWlLk6GJQsqaUBKTNV-1">
          <mxGeometry x="425" y="1280" width="60" height="30" as="geometry" />
        </mxCell>
      </root>
    </mxGraphModel>
  </diagram>
</mxfile>
